<?xml version="1.0" encoding="UTF-8"?>
<svg version="1.1" xmlns="http://www.w3.org/2000/svg" width="1570" height="350">
<path d="M0 0 C518.1 0 1036.2 0 1570 0 C1570 115.5 1570 231 1570 350 C1051.9 350 533.8 350 0 350 C0 234.5 0 119 0 0 Z " fill="#FEFEFE" transform="translate(0,0)"/>
<path d="M0 0 C14.32663862 -0.04695792 28.65326512 -0.08197095 42.97996521 -0.10362434 C49.63380998 -0.11402157 56.28758882 -0.12810591 62.94140625 -0.15087891 C69.37346909 -0.17275292 75.80548216 -0.1845991 82.23757935 -0.18975449 C84.68051943 -0.19342427 87.12345707 -0.20058972 89.56637573 -0.21146011 C115.33324968 -0.32146286 142.59327672 0.00545779 162.14453125 19.09375 C172.63818639 30.15199884 175.42509498 41.57528982 175.1875 56.484375 C174.96061546 60.73846016 174.36842534 63.96314524 173 68 C172.75507812 68.763125 172.51015625 69.52625 172.2578125 70.3125 C167.52745108 83.70821376 157.37316084 95.12042177 145 102 C144.34 102 143.68 102 143 102 C157.09415884 130.87958432 172.50996074 159.70279489 204 172 C204.02806159 173.43737706 204.04684998 174.87493423 204.0625 176.3125 C204.07410156 177.11300781 204.08570313 177.91351563 204.09765625 178.73828125 C203.95473004 183.51201681 203.4663816 188.24837595 203 193 C175.16856588 193.64917819 152.4566816 191.0577673 131.26953125 171.171875 C130.14611328 170.09679687 130.14611328 170.09679687 129 169 C128.38511719 168.44828125 127.77023437 167.8965625 127.13671875 167.328125 C112.68442488 153.90576472 102.56561722 132.94192462 95 115 C95 114.34 95 113.68 95 113 C86.09 113 77.18 113 68 113 C68.07403353 119.17541772 68.15689536 125.34939607 68.26245117 131.52416992 C68.29567422 133.62402861 68.3237143 135.72397603 68.34643555 137.82397461 C68.38002936 140.84527344 68.43234834 143.86576101 68.48828125 146.88671875 C68.49467117 147.82335861 68.5010611 148.75999847 68.50764465 149.72502136 C68.65451841 156.36991467 68.65451841 156.36991467 72 162 C73.8539182 163.17711718 73.8539182 163.17711718 75.9765625 163.765625 C76.729375 164.01570312 77.4821875 164.26578125 78.2578125 164.5234375 C79.03898438 164.76320312 79.82015625 165.00296875 80.625 165.25 C88.94021739 167.94021739 88.94021739 167.94021739 90 169 C90 174.61 90 180.22 90 186 C59.97 186 29.94 186 -1 186 C-1 180.72 -1 175.44 -1 170 C0.10859375 169.69707031 1.2171875 169.39414063 2.359375 169.08203125 C3.82318369 168.65977874 5.28671102 168.23655001 6.75 167.8125 C7.47960937 167.61591797 8.20921875 167.41933594 8.9609375 167.21679688 C13.74553798 165.80316492 16.34333535 164.45571668 19 160 C21.5354327 154.20422578 21.44988011 148.37500105 21.61328125 142.15234375 C21.66927238 140.28750587 21.66927238 140.28750587 21.72639465 138.38499451 C22.23655164 119.92351923 22.18706221 101.44760509 22.18530273 82.98071289 C22.1851995 77.57324613 22.19906107 72.16590597 22.21607494 66.75846958 C22.22717351 62.55402528 22.22922291 58.34961241 22.22869301 54.14515495 C22.22986825 52.1489002 22.2342643 50.15264451 22.24202538 48.1564045 C22.25181949 45.38746001 22.24895396 42.61880258 22.24291992 39.84985352 C22.25134918 38.63209732 22.25134918 38.63209732 22.25994873 37.38973999 C22.23512307 32.90773983 21.8977862 29.15438876 20 25 C17.2818665 23.70031103 17.2818665 23.70031103 14 23 C11.5494387 22.00123069 9.11575715 20.98693606 6.6875 19.9375 C6.05521484 19.66873047 5.42292969 19.39996094 4.77148438 19.12304688 C0.12676222 17.12676222 0.12676222 17.12676222 -1 16 C-1.09955104 14.06461065 -1.12968668 12.12544231 -1.125 10.1875 C-1.12757813 9.12917969 -1.13015625 8.07085937 -1.1328125 6.98046875 C-1.01971013 4.44231854 -0.65805149 2.42734086 0 0 Z " fill="#1A335E" transform="translate(569,24)"/>
<path d="M0 0 C7.89393815 -0.31789546 15.78280952 -0.57396928 23.68145466 -0.72537041 C27.35037954 -0.79808533 31.01465877 -0.89642396 34.6809082 -1.05615234 C60.32569313 -2.1438111 60.32569313 -2.1438111 66.15600586 2.81396484 C68.68460932 5.66064521 70.45512648 8.77081258 72.09048462 12.19537354 C73.43928792 14.8716187 75.26723289 17.0800525 77.15234375 19.3984375 C78.41531819 21.05633584 79.67703517 22.71519285 80.9375 24.375 C81.96133789 25.72078125 81.96133789 25.72078125 83.00585938 27.09375 C87.50511275 33.01404216 91.97618245 38.95480407 96.42822266 44.91064453 C100.52340956 50.38231876 104.66501712 55.81789853 108.8125 61.25 C114.20123058 68.30780642 119.55566981 75.38974295 124.875 82.5 C129.62343323 88.84565564 134.40217829 95.16253132 139.25390625 101.4296875 C141.53108587 104.37869218 143.78037675 107.34823279 146.02734375 110.3203125 C146.74349854 111.26592041 147.45965332 112.21152832 148.19750977 113.18579102 C149.62362248 115.06984597 151.04737966 116.95568678 152.46850586 118.84350586 C153.1260083 119.71112549 153.78351074 120.57874512 154.4609375 121.47265625 C155.33951416 122.63680054 155.33951416 122.63680054 156.23583984 123.82446289 C158.03142703 126.03875536 159.95011831 128.02129867 162 130 C161.7692981 129.0114502 161.7692981 129.0114502 161.53393555 128.00292969 C160.88012135 124.3257854 160.6404737 120.67669379 160.45703125 116.953125 C160.39380424 115.68024628 160.39380424 115.68024628 160.32929993 114.38165283 C159.94235791 105.52278509 159.88500847 96.66243974 159.82421875 87.796875 C159.81223427 86.24230855 159.80011783 84.68774312 159.78787231 83.13317871 C159.68935039 70.24613986 159.68935039 70.24613986 159.67407227 63.83935547 C159.66396247 59.85437775 159.63461248 55.86993543 159.59275246 51.88516998 C159.58053235 50.38463644 159.57530457 48.88402736 159.57755089 47.38344574 C159.6082598 36.09523462 159.6082598 36.09523462 155 26 C152.48800993 23.94969493 149.87661133 22.48991413 147 21 C145.26546953 20.05425372 143.53094632 19.10849403 141.79663086 18.16235352 C139.20708968 16.75726615 136.60426297 15.37755983 134 14 C133.97314062 11.85423363 133.95366912 9.70837355 133.9375 7.5625 C133.92589844 6.36753906 133.91429687 5.17257813 133.90234375 3.94140625 C134 1 134 1 135 0 C137.34253782 -0.09492722 139.65546104 -0.12559791 141.99829102 -0.11352539 C143.09578674 -0.11374443 143.09578674 -0.11374443 144.2154541 -0.1139679 C146.64496784 -0.11326867 149.07440583 -0.10547585 151.50390625 -0.09765625 C153.18399514 -0.0957921 154.86408457 -0.09436819 156.54417419 -0.09336853 C160.97473643 -0.08954307 165.4052661 -0.07971256 169.83581543 -0.06866455 C174.35342976 -0.05845103 178.87104934 -0.05387104 183.38867188 -0.04882812 C192.25913123 -0.03809031 201.12955781 -0.02049329 210 0 C210 4.62 210 9.24 210 14 C208.60587891 14.72703125 208.60587891 14.72703125 207.18359375 15.46875 C195.14467329 21.83067564 195.14467329 21.83067564 188 33 C187.89683281 35.02916617 187.85358433 37.06155468 187.84178162 39.0933075 C187.8319928 40.36796875 187.82220398 41.64263 187.81211853 42.95591736 C187.80621433 44.37124596 187.80040389 45.78657496 187.79467773 47.2019043 C187.78509912 48.69001538 187.77508905 50.17812375 187.76467896 51.66622925 C187.73762203 55.70929369 187.71661673 59.75236981 187.69667697 63.79547477 C187.67482228 68.01958077 187.64743106 72.24365073 187.62062073 76.46772766 C187.57068685 84.46807505 187.52575059 92.46844244 187.48259836 100.46882898 C187.43323194 109.57636693 187.3783116 118.68386872 187.32291877 127.7913717 C187.20908805 146.52754757 187.10225137 165.26375755 187 184 C183.32238316 185.12882198 179.64370953 186.25416191 175.96484375 187.37890625 C174.93016968 187.69653931 173.89549561 188.01417236 172.82946777 188.34143066 C165.93070183 190.44820659 159.03859478 192.41063989 152 194 C146.7343473 187.76770574 141.77662923 181.41173317 137.07568359 174.74633789 C133.52916384 169.72176611 129.90415104 164.75928618 126.25 159.8125 C125.65743408 159.01005859 125.06486816 158.20761719 124.4543457 157.38085938 C123.24132175 155.73889291 122.02802245 154.09712983 120.81445312 152.45556641 C117.87205307 148.47350777 114.93635163 144.48651946 112 140.5 C110.83594846 138.92056484 109.67188595 137.34113777 108.5078125 135.76171875 C106.14656803 132.55736102 103.78741454 129.35147783 101.4296875 126.14453125 C95.98363105 118.73980537 90.52542234 111.34575634 85 104 C80.67661402 98.25228732 76.38931746 92.47917549 72.125 86.6875 C71.5484668 85.9052002 70.97193359 85.12290039 70.37792969 84.31689453 C67.2639202 80.08802474 64.16130466 75.85119453 61.0703125 71.60546875 C60.43077637 70.72995361 59.79124023 69.85443848 59.13232422 68.95239258 C57.89875767 67.26331838 56.66848875 65.57182979 55.44189453 63.87768555 C54.88872559 63.12140869 54.33555664 62.36513184 53.765625 61.5859375 C53.27868164 60.9161084 52.79173828 60.2462793 52.29003906 59.55615234 C51.06347652 57.86375101 51.06347652 57.86375101 49 57 C49.16109253 57.66393265 49.32218506 58.3278653 49.48815918 59.01191711 C50.10656638 62.62212539 50.16825043 66.15848275 50.18945312 69.80932617 C50.19774643 70.58093582 50.20603973 71.35254547 50.21458435 72.14753723 C50.23194225 73.81985143 50.24712058 75.49218937 50.26036072 77.16454124 C50.28153586 79.82893743 50.30855687 82.49321949 50.33703613 85.157547 C50.39662357 90.83415249 50.44865286 96.51081489 50.5 102.1875 C50.55968389 108.72770838 50.62260252 115.26786345 50.69187927 121.80797768 C50.71794969 124.40087252 50.73907876 126.99377414 50.7598877 129.5867157 C50.86295602 140.41599428 51.30573395 151.19266959 52 162 C52.67063477 162.17917969 53.34126953 162.35835937 54.03222656 162.54296875 C62.73340506 164.87458784 71.36440255 167.43867977 80 170 C80.02725341 171.7290774 80.04650987 173.45828176 80.0625 175.1875 C80.07410156 176.15042969 80.08570313 177.11335937 80.09765625 178.10546875 C80 181 80 181 79 186 C52.6 186 26.2 186 -1 186 C-2.09506492 182.71480525 -2.09960608 180.26336585 -2.0625 176.8125 C-2.05347656 175.72582031 -2.04445312 174.63914063 -2.03515625 173.51953125 C-2.02355469 172.68808594 -2.01195312 171.85664063 -2 171 C2.96115354 169.08516881 7.86623138 167.40926982 13 166 C16.05059561 165.34316344 16.05059561 165.34316344 17.05859375 163.25 C17.36925781 162.5075 17.67992187 161.765 18 161 C18.51240234 159.7934375 18.51240234 159.7934375 19.03515625 158.5625 C19.37417969 157.716875 19.71320313 156.87125 20.0625 156 C20.40410156 155.154375 20.74570312 154.30875 21.09765625 153.4375 C22.51922263 149.59742459 23.12619302 146.30048301 23.14717102 142.20024109 C23.15432632 141.23723083 23.16148163 140.27422058 23.16885376 139.2820282 C23.17154266 138.23207169 23.17423157 137.18211517 23.17700195 136.1003418 C23.18357315 134.98934113 23.19014435 133.87834045 23.19691467 132.7336731 C23.2166325 129.05552096 23.22830596 125.3774096 23.23828125 121.69921875 C23.24235678 120.44287943 23.2464323 119.18654011 23.25063133 117.8921299 C23.2693349 111.92966919 23.28390334 105.96722142 23.2922433 100.00473851 C23.30201439 93.13363175 23.32833626 86.26284723 23.36874419 79.39185399 C23.40259088 73.43101513 23.4143921 67.47025487 23.41844749 61.5093174 C23.42331986 58.97798284 23.43495221 56.44665188 23.45348549 53.91538048 C23.4778158 50.37260602 23.4769227 46.83067411 23.4699707 43.2878418 C23.48278076 42.24395798 23.49559082 41.20007416 23.50878906 40.1245575 C23.46402403 33.86173841 22.68115423 30.11834103 19 25 C17.33272989 23.39344212 17.33272989 23.39344212 15.4375 22.4375 C14.75558594 22.05078125 14.07367188 21.6640625 13.37109375 21.265625 C12.19740234 20.63914062 12.19740234 20.63914062 11 20 C10.02160156 19.45859375 9.04320312 18.9171875 8.03515625 18.359375 C5.36610992 16.88916672 2.68403262 15.44266753 0 14 C0 9.38 0 4.76 0 0 Z " fill="#1A335E" transform="translate(241,24)"/>
<path d="M0 0 C7.84140644 -0.4095369 15.67681001 -0.73838104 23.52601814 -0.93261909 C27.1729654 -1.02594604 30.81212866 -1.15195483 34.45458984 -1.35791016 C57.8134493 -2.64388382 57.8134493 -2.64388382 64.62646484 1.65866089 C69.01901493 5.75092199 72.00166861 10.53484538 74.80438232 15.80566406 C76.36065277 18.6619117 78.26948996 21.13848855 80.296875 23.67578125 C81.44941399 25.22023793 82.60050745 26.76577461 83.75 28.3125 C88.54455572 34.73295516 93.37427943 41.11988675 98.2734375 47.4609375 C106.78278172 58.48574606 115.2073487 69.57771337 123.54296875 80.734375 C126.93791134 85.26096512 130.38001118 89.75187053 133.8125 94.25 C138.79095799 100.77662635 143.75928726 107.31032266 148.6875 113.875 C149.15583252 114.49793945 149.62416504 115.12087891 150.10668945 115.76269531 C152.35939891 118.76958519 154.56016114 121.7992831 156.70703125 124.8828125 C158.6439678 128.01177588 158.6439678 128.01177588 161 129 C160.93071289 127.69023193 160.86142578 126.38046387 160.79003906 125.03100586 C160.21308575 113.26673704 159.92031248 101.52184216 159.8697052 89.74531937 C159.85931798 87.42868963 159.84541662 85.11210606 159.83044434 82.79550171 C159.82052611 81.22760029 159.81063857 79.65969868 159.80078125 78.09179688 C159.79586922 77.31101084 159.79095718 76.5302248 159.7858963 75.72577858 C159.76239954 71.71547646 159.74800504 67.70544354 159.74951172 63.69506836 C159.75030144 59.73781764 159.72688287 55.78134108 159.6876297 51.82429314 C159.67726263 50.3385358 159.67557614 48.85268827 159.68328094 47.36691475 C159.7224708 39.00355933 159.60123364 31.69878844 154 25 C151.71232975 22.9096645 151.71232975 22.9096645 149.13671875 21.71484375 C148.25048828 21.24755859 147.36425781 20.78027344 146.45117188 20.29882812 C145.0831543 19.6249707 145.0831543 19.6249707 143.6875 18.9375 C142.75615234 18.45345703 141.82480469 17.96941406 140.86523438 17.47070312 C138.58733826 16.29086975 136.30032555 15.13529618 134 14 C133.97314062 11.85423363 133.95366912 9.70837355 133.9375 7.5625 C133.92589844 6.36753906 133.91429687 5.17257813 133.90234375 3.94140625 C134 1 134 1 135 0 C137.30053835 -0.09443335 139.60402173 -0.11742128 141.90649414 -0.11352539 C142.62840439 -0.11367142 143.35031464 -0.11381744 144.09410095 -0.1139679 C146.49114947 -0.11326869 148.88812123 -0.10547595 151.28515625 -0.09765625 C152.94282489 -0.0957921 154.60049407 -0.09436818 156.25816345 -0.09336853 C160.62954214 -0.08954312 165.00088781 -0.07971265 169.37225342 -0.06866455 C173.82954461 -0.05845092 178.28684111 -0.05387101 182.74414062 -0.04882812 C191.49610893 -0.0380904 200.24805036 -0.02101371 209 0 C209.85540752 3.18483906 210.10600229 5.94382604 210.0625 9.25 C210.05347656 10.14203125 210.04445313 11.0340625 210.03515625 11.953125 C210.01775391 12.96632813 210.01775391 12.96632813 210 14 C208.60587891 14.72703125 208.60587891 14.72703125 207.18359375 15.46875 C195.14467329 21.83067564 195.14467329 21.83067564 188 33 C187.89683281 35.02916617 187.85358433 37.06155468 187.84178162 39.0933075 C187.8319928 40.36796875 187.82220398 41.64263 187.81211853 42.95591736 C187.80621433 44.37124596 187.80040389 45.78657496 187.79467773 47.2019043 C187.78509912 48.69001538 187.77508905 50.17812375 187.76467896 51.66622925 C187.73762203 55.70929369 187.71661673 59.75236981 187.69667697 63.79547477 C187.67482228 68.01958077 187.64743106 72.24365073 187.62062073 76.46772766 C187.57068685 84.46807505 187.52575059 92.46844244 187.48259836 100.46882898 C187.43323194 109.57636693 187.3783116 118.68386872 187.32291877 127.7913717 C187.20908805 146.52754757 187.10225137 165.26375755 187 184 C183.32238316 185.12882198 179.64370953 186.25416191 175.96484375 187.37890625 C174.93016968 187.69653931 173.89549561 188.01417236 172.82946777 188.34143066 C165.93070183 190.44820659 159.03859478 192.41063989 152 194 C146.67482986 187.69726239 141.68473825 181.27476066 136.93505859 174.53540039 C133.78159106 170.0692885 130.54220129 165.67722226 127.25 161.3125 C121.03140805 153.06189198 114.90201808 144.7473927 108.78222656 136.42333984 C105.85769254 132.44677482 102.92864567 128.47353729 100 124.5 C98.83331112 122.91668304 97.66664447 121.33334969 96.5 119.75 C95.9225 118.96625 95.345 118.1825 94.75 117.375 C75.5 91.25 75.5 91.25 73.74707031 88.87060547 C72.59070311 87.301527 71.4338097 85.7328362 70.27636719 84.16455078 C67.19749226 79.99129315 64.1304125 75.80993978 61.078125 71.6171875 C60.43746094 70.73998047 59.79679687 69.86277344 59.13671875 68.95898438 C57.90160224 67.26741177 56.66970108 65.57348562 55.44140625 63.87695312 C54.61189453 62.74290039 54.61189453 62.74290039 53.765625 61.5859375 C53.27868164 60.9161084 52.79173828 60.2462793 52.29003906 59.55615234 C51.06347652 57.86375101 51.06347652 57.86375101 49 57 C49.15919922 58.14227051 49.31839844 59.28454102 49.48242188 60.46142578 C50.20911608 67.04473106 50.20195255 73.64540345 50.26036072 80.26052475 C50.28171175 82.66928074 50.30871112 85.07791928 50.33703613 87.48660278 C50.39633508 92.61602075 50.4485302 97.74549839 50.5 102.875 C50.55984937 108.7947615 50.62279941 114.71446714 50.69187927 120.63412857 C50.71781535 122.97049315 50.73901706 125.30686562 50.7598877 127.64328003 C50.80537494 132.0965201 50.88833768 136.54794027 51 141 C51.03077133 142.27594906 51.03077133 142.27594906 51.06216431 143.57767487 C51.13390222 146.19740854 51.22848788 148.81535132 51.33007812 151.43408203 C51.35148613 152.2458534 51.37289413 153.05762478 51.39495087 153.89399529 C51.47050037 158.08954086 51.47050037 158.08954086 53.37238312 161.67719841 C55.61066975 163.49630532 57.77205905 164.04719116 60.54296875 164.82421875 C61.61611328 165.13037109 62.68925781 165.43652344 63.79492188 165.75195312 C64.91447266 166.06068359 66.03402344 166.36941406 67.1875 166.6875 C68.31865234 167.00783203 69.44980469 167.32816406 70.61523438 167.65820312 C73.40767631 168.44762764 76.20352825 169.22497176 79 170 C79 175.28 79 180.56 79 186 C52.6 186 26.2 186 -1 186 C-2.14077657 182.57767028 -2.09815117 179.91326783 -2.0625 176.3125 C-2.04896484 174.54326172 -2.04896484 174.54326172 -2.03515625 172.73828125 C-2.02355469 171.83464844 -2.01195312 170.93101562 -2 170 C-0.98679687 169.79246094 0.02640625 169.58492187 1.0703125 169.37109375 C9.59592128 167.71478432 9.59592128 167.71478432 16.6875 163.125 C24.88931352 149.87161904 23.58834003 134.10318304 23.53125 119.16015625 C23.53394889 116.66344553 23.53783461 114.16673584 23.54284668 111.67002869 C23.54871532 106.46310316 23.54025866 101.25645377 23.52148438 96.04956055 C23.50317412 90.71212259 23.50218919 85.37526706 23.52148438 80.0378418 C23.54468173 73.5636517 23.5483057 67.08978566 23.53526306 60.61556816 C23.53260017 58.15682333 23.53585006 55.69806458 23.54518127 53.23933601 C23.55535594 49.8077037 23.53983499 46.37711157 23.51757812 42.94555664 C23.52567505 41.93608475 23.53377197 40.92661285 23.54211426 39.8865509 C23.46814881 33.7211346 22.60032378 30.05020148 19 25 C17.33272989 23.39344212 17.33272989 23.39344212 15.4375 22.4375 C14.75558594 22.05078125 14.07367187 21.6640625 13.37109375 21.265625 C12.19740234 20.63914062 12.19740234 20.63914062 11 20 C10.02160156 19.45859375 9.04320312 18.9171875 8.03515625 18.359375 C5.36610992 16.88916672 2.68403262 15.44266753 0 14 C0 9.38 0 4.76 0 0 Z " fill="#1A335E" transform="translate(983,24)"/>
<path d="M0 0 C29.37 0 58.74 0 89 0 C89 5.94 89 11.88 89 18 C81.25 20.1875 81.25 20.1875 78.82910156 20.84057617 C74.14839324 22.234767 71.61436803 23.64932189 69 28 C67.93630179 31.25735726 67.87892339 34.27337446 67.88647461 37.68652344 C67.88655014 38.82740417 67.88662567 39.96828491 67.88670349 41.14373779 C67.89186478 42.36989807 67.89702606 43.59605835 67.90234375 44.859375 C67.9037587 46.11888977 67.90517365 47.37840454 67.90663147 48.67608643 C67.91127927 52.01665119 67.92025719 55.35714721 67.93133545 58.69769287 C67.94158402 62.1096538 67.94613646 65.52162185 67.95117188 68.93359375 C67.96220037 75.6224148 67.97893811 82.31120343 68 89 C68.4034816 88.59389999 68.8069632 88.18779999 69.22267151 87.76939392 C71.06507993 85.91654271 72.90947262 84.06567888 74.75390625 82.21484375 C75.38864868 81.57591187 76.02339111 80.93697998 76.67736816 80.27868652 C79.68161562 77.26661805 82.67219138 74.29533623 85.9375 71.5625 C90.7442407 67.50324381 95.07306887 62.95067801 99.49609375 58.484375 C103.28034685 54.6773252 107.11986895 51.02435435 111.21875 47.5546875 C118.538812 41.77659782 118.538812 41.77659782 122.16796875 33.79296875 C122.42062794 27.06594206 122.42062794 27.06594206 120 21 C117.08333333 19.75 117.08333333 19.75 114 19 C113.01 18.34 112.02 17.68 111 17 C110.75049538 14.40990446 110.67280263 12.0812871 110.75 9.5 C110.75515625 8.81035156 110.7603125 8.12070312 110.765625 7.41015625 C110.84516474 2.30967052 110.84516474 2.30967052 112 0 C136.75 0 161.5 0 187 0 C187 13 187 13 184.76171875 16.359375 C183.74722656 17.14828125 182.73273438 17.9371875 181.6875 18.75 C181.14351562 19.19279297 180.59953125 19.63558594 180.0390625 20.09179688 C178.3841014 21.42997307 176.69578098 22.71420463 175 24 C173.16225787 25.49459526 171.32868578 26.99433755 169.5 28.5 C168.15421875 29.5828125 168.15421875 29.5828125 166.78125 30.6875 C163.75980812 33.1997101 160.87558227 35.82400827 158 38.5 C153.41239887 42.76918152 148.66557272 46.75758517 143.78125 50.6875 C140.75980664 53.19971133 137.87559922 55.82402457 135 58.5 C130.4035794 62.77692685 125.6512001 66.78121362 120.7578125 70.71875 C116.01650467 74.64073834 111.51298603 78.81872281 107 83 C109.82528775 87.52192873 112.9989964 91.28675704 116.78735352 95.04614258 C117.35548264 95.61777634 117.92361176 96.1894101 118.50895691 96.77836609 C120.37729563 98.65546201 122.25280329 100.52519783 124.12890625 102.39453125 C125.44234413 103.70931843 126.75548516 105.0244022 128.06834412 106.33976746 C130.81974781 109.09411509 133.57472269 111.84482653 136.33227539 114.59301758 C139.83997586 118.08938035 143.33869473 121.59457043 146.83471775 125.10260487 C149.54652636 127.8217 152.26315435 130.53594027 154.98118401 133.24881554 C156.27143467 134.53774547 157.5602388 135.8281253 158.84747505 137.12006569 C166.25013177 144.5438153 173.71101839 151.55809761 182 158 C183.06858246 158.83783524 183.06858246 158.83783524 184.15875244 159.69259644 C185.82612264 160.99468165 187.50374901 162.28169797 189.1875 163.5625 C190.04311523 164.21702148 190.04311523 164.21702148 190.91601562 164.88476562 C192.27608815 165.92482108 193.63784028 166.96267964 195 168 C194.35401634 172.87310005 193.49028264 177.63131839 192.4375 182.4375 C192.03337891 184.29181641 192.03337891 184.29181641 191.62109375 186.18359375 C191.31365234 187.57771484 191.31365234 187.57771484 191 189 C181.13192435 189.53630846 172.05464775 189.19610062 162.4375 186.75 C161.22658691 186.44316284 161.22658691 186.44316284 159.99121094 186.13012695 C154.39794635 184.6062101 149.22887919 182.48818579 144 180 C143.04351563 179.55398437 142.08703125 179.10796875 141.1015625 178.6484375 C130.52463809 173.20982968 122.53961838 165.0536594 115 156 C113.0896996 153.74455213 111.17061009 151.49667138 109.25 149.25 C108.73679199 148.64881348 108.22358398 148.04762695 107.69482422 147.42822266 C103.39023722 142.40687561 98.94656001 137.52749566 94.45703125 132.671875 C91.83469739 129.82024327 89.28011681 126.91869929 86.7421875 123.9921875 C84.000642 120.85723637 81.20137817 117.77465648 78.40625 114.6875 C75.24059965 111.15183857 72.12510524 107.57154885 69 104 C69 123.47 69 142.94 69 163 C74.94 164.32 80.88 165.64 87 167 C87.99 167.33 88.98 167.66 90 168 C90.02730462 169.87491693 90.04653244 171.74995225 90.0625 173.625 C90.07410156 174.66914063 90.08570313 175.71328125 90.09765625 176.7890625 C90 180 90 180 89 186 C59.63 186 30.26 186 0 186 C0 180.72 0 175.44 0 170 C2.7534375 169.195625 2.7534375 169.195625 5.5625 168.375 C10.96788448 166.56895064 15.42153124 164.55344079 19 160 C20.66742001 156.44184571 21.25069774 153.64160996 21.25396729 149.72485352 C21.25960693 148.68185089 21.26524658 147.63884827 21.27105713 146.5642395 C21.26700867 145.43057953 21.26296021 144.29691956 21.25878906 143.12890625 C21.2622937 141.92676483 21.26579834 140.72462341 21.26940918 139.48605347 C21.27669514 136.19680792 21.2749988 132.90772376 21.26865101 129.61848068 C21.26357869 126.17216408 21.26828589 122.72585806 21.27142334 119.27954102 C21.2750594 113.49265616 21.27027336 107.7058224 21.26074219 101.91894531 C21.24985831 95.23366864 21.25338414 88.54851396 21.264395 81.86324024 C21.27347816 76.1178753 21.27474812 70.37254704 21.26951766 64.62717724 C21.26640361 61.19813729 21.26597306 57.76915465 21.27259064 54.34011841 C21.27766347 50.517026 21.26993459 46.69416863 21.25878906 42.87109375 C21.26283752 41.73743378 21.26688599 40.6037738 21.27105713 39.4357605 C21.26541748 38.39275787 21.25977783 37.34975525 21.25396729 36.27514648 C21.25321323 35.3718309 21.25245918 34.46851532 21.25168228 33.53782654 C20.96993276 30.69681839 20.24417097 28.5625826 19 26 C17.3134875 24.79976042 17.3134875 24.79976042 15 24 C13.77304835 23.43088853 12.5494053 22.85461963 11.328125 22.2734375 C9.96905881 21.63996205 8.60962263 21.00728027 7.25 20.375 C4.8575 19.26125 2.465 18.1475 0 17 C0 11.39 0 5.78 0 0 Z " fill="#1A335E" transform="translate(1207,24)"/>
<path d="M0 0 C30.36 0 60.72 0 92 0 C92 5.94 92 11.88 92 18 C83.3125 19.3125 83.3125 19.3125 80.6027832 19.7043457 C79.88437256 19.81866943 79.16596191 19.93299316 78.42578125 20.05078125 C77.33390503 20.21574097 77.33390503 20.21574097 76.2199707 20.3840332 C73.15710154 21.23387582 71.45221822 21.89493465 69 24 C68.21700396 27.17737928 68.3280221 30.33149778 68.36889648 33.58935547 C68.36174118 34.57352951 68.35458588 35.55770355 68.34721375 36.57170105 C68.33025842 39.83733071 68.34978414 43.1015995 68.37109375 46.3671875 C68.37026502 48.64104323 68.3678055 50.9148989 68.36378479 53.18875122 C68.36092124 57.96553488 68.37567107 62.74185118 68.40307617 67.51855469 C68.43696599 73.61234942 68.43121034 79.7052976 68.4124136 85.79913139 C68.40178433 90.50237947 68.4108383 95.20543451 68.42579842 99.9086647 C68.43095039 102.15311228 68.43053504 104.39758029 68.42425346 106.64202499 C68.34897226 129.38381966 68.34897226 129.38381966 79 149 C89.13887385 158.47281644 100.33876861 161.35904825 113.875 161.3125 C114.80441406 161.32861328 115.73382813 161.34472656 116.69140625 161.36132812 C127.03270177 161.36853963 135.29835103 159.02103813 143 152 C152.86702285 141.58480921 155.13055535 126.07265644 155.17700195 112.26000977 C155.18357315 111.40230988 155.19014435 110.54460999 155.19691467 109.66091919 C155.21654008 106.83774718 155.2282833 104.01462797 155.23828125 101.19140625 C155.24235678 100.22374769 155.2464323 99.25608913 155.25063133 98.25910759 C155.27144154 93.14173474 155.28576763 88.02438835 155.29516602 82.90698242 C155.3062479 77.62997348 155.34068283 72.35338414 155.38033772 67.07652378 C155.40649963 63.00924403 155.41485725 58.94206467 155.41844749 54.87470818 C155.42331086 52.92949512 155.4349177 50.98428647 155.45348549 49.03915596 C155.47787841 46.31556021 155.47691225 43.5930567 155.4699707 40.86938477 C155.48278076 40.07176224 155.49559082 39.27413971 155.50878906 38.4523468 C155.45701407 32.86154825 154.19055705 29.61264367 151 25 C148.84623627 23.25523004 148.84623627 23.25523004 146.375 22.25 C145.50746094 21.858125 144.63992187 21.46625 143.74609375 21.0625 C140.19333515 19.6878907 136.61182901 18.56510856 132.93359375 17.578125 C131 17 131 17 130 16 C130 10.72 130 5.44 130 0 C155.74 0 181.48 0 208 0 C209.53266582 3.06533164 209.10276471 6.26754272 209.0625 9.625 C209.05798828 10.33140625 209.05347656 11.0378125 209.04882812 11.765625 C209.03703875 13.51045275 209.01910324 15.255237 209 17 C207.96359375 17.30292969 206.9271875 17.60585938 205.859375 17.91796875 C204.4893069 18.34025001 203.11953013 18.76347727 201.75 19.1875 C200.72712891 19.48237305 200.72712891 19.48237305 199.68359375 19.78320312 C194.91843152 21.28677373 192.58415759 22.73787884 190 27 C189.43245844 30.04600779 189.46646313 33.03496802 189.50170898 36.1262207 C189.49619019 37.03759293 189.49067139 37.94896515 189.48498535 38.88795471 C189.47567102 40.86475282 189.47555549 42.84161093 189.48357964 44.81841469 C189.49623709 47.96137317 189.48488941 51.10345661 189.46754456 54.24638367 C189.44081689 59.80186098 189.43524877 65.35712405 189.43664551 70.91265869 C189.43887021 79.76429106 189.42435702 88.61565455 189.38105965 97.46718407 C189.37133264 100.53786611 189.37988651 103.608115 189.38975525 106.67878723 C189.36447271 130.20497132 185.26809337 149.86229625 168.875 167.6875 C151.00502703 184.82183086 123.66090259 189.65413922 99.82080078 189.33398438 C77.13303298 188.73162175 53.41516117 185.97371267 36.25 169.46875 C25.39388946 157.55718427 20.84936318 142.73788319 20.8581543 126.9206543 C20.85294266 125.40264725 20.85294266 125.40264725 20.84762573 123.85397339 C20.84028283 121.65942113 20.83492965 119.46486151 20.83133507 117.27029991 C20.82415579 113.79373055 20.80847838 110.31730118 20.78999329 106.84077454 C20.73759054 96.95710153 20.68954796 87.07350625 20.67407227 77.18969727 C20.66398078 71.14077881 20.63462825 65.09221448 20.59275246 59.04343605 C20.5804566 56.74184665 20.5753186 54.44020721 20.57755089 52.13858604 C20.5799086 48.914517 20.55770103 45.6914612 20.5300293 42.4675293 C20.53663071 41.52231918 20.54323212 40.57710907 20.55003357 39.60325623 C20.46649786 33.65845581 19.50661322 28.9166833 16 24 C13.49364642 22.13312297 13.49364642 22.13312297 10.625 21.1875 C9.70976562 20.83042969 8.79453125 20.47335938 7.8515625 20.10546875 C6.91054688 19.74066406 5.96953125 19.37585938 5 19 C2.99072048 18.01877841 0.98813302 17.02339 -1 16 C-1.02692484 13.70839681 -1.04636124 11.41670454 -1.0625 9.125 C-1.07410156 7.84882813 -1.08570312 6.57265625 -1.09765625 5.2578125 C-1 2 -1 2 0 0 Z " fill="#1A335E" transform="translate(18,24)"/>
<path d="M0 0 C1.05429077 1.59692383 1.05429077 1.59692383 1.84912109 3.70703125 C2.15909531 4.50630539 2.46906952 5.30557953 2.78843689 6.1290741 C3.11348709 7.01460464 3.43853729 7.90013519 3.7734375 8.8125 C4.30723778 10.20780693 4.30723778 10.20780693 4.8518219 11.63130188 C6.04077465 14.74887993 7.20751757 17.87432486 8.375 21 C9.21394445 23.21049953 10.05455388 25.42036779 10.89672852 27.62963867 C12.68648662 32.32916054 14.46850754 37.0315167 16.24560547 41.73583984 C18.94643169 48.87376336 21.68724098 55.99579178 24.44140625 63.11328125 C24.89334854 64.28136826 25.34529083 65.44945526 25.81092834 66.65293884 C26.72707537 69.02000739 27.64340147 71.38700663 28.55990601 73.75393677 C34.15988117 88.21963986 39.74959698 102.68908111 45.25810242 117.18989563 C47.08619954 122.00176249 48.91993165 126.81147456 50.75369263 131.6211853 C51.61708074 133.89133619 52.4773995 136.16265711 53.33444214 138.43521118 C54.51882625 141.57560894 55.71344497 144.71193936 56.91015625 147.84765625 C57.4228154 149.2202359 57.4228154 149.2202359 57.9458313 150.62054443 C60.65405678 157.67024739 63.70813407 164.01118107 69.3125 169.1875 C73.05515826 173.3236172 72.51290997 177.78477048 72.30859375 183.109375 C72 186 72 186 71 189 C43.28 189 15.56 189 -13 189 C-14.82901588 184.42746031 -15.22853587 182.39838207 -15.125 177.6875 C-15.10695313 176.61886719 -15.08890625 175.55023438 -15.0703125 174.44921875 C-15.04710937 173.64097656 -15.02390625 172.83273438 -15 172 C-14.38253906 171.75765625 -13.76507812 171.5153125 -13.12890625 171.265625 C-10.41349596 170.19103341 -7.70674754 169.09621398 -5 168 C-4.14277344 167.66484375 -3.28554688 167.3296875 -2.40234375 166.984375 C-1.60957031 166.65953125 -0.81679688 166.3346875 0 166 C1.0828125 165.566875 1.0828125 165.566875 2.1875 165.125 C4.50584335 163.68602827 4.97401935 162.51332304 6 160 C7.36767507 151.08366526 4.50572447 143.27702505 1.5 135 C0.65261888 132.60544855 -0.191307 130.20967066 -1.03125 127.8125 C-1.40830078 126.76707031 -1.78535156 125.72164063 -2.17382812 124.64453125 C-3 122 -3 122 -3 119 C-22.8 119 -42.6 119 -63 119 C-63.99 122.3 -64.98 125.6 -66 129 C-67.60546875 132.94921875 -67.60546875 132.94921875 -68.39916992 134.80737305 C-71.81790439 142.96088006 -73.9271977 151.1607301 -72 160 C-68.06613477 165.75850911 -62.06595662 166.96384942 -55.6875 168.8125 C-54.66076172 169.12380859 -53.63402344 169.43511719 -52.57617188 169.75585938 C-50.05467603 170.51817207 -47.52974434 171.26561971 -45 172 C-44.97290556 174.08326131 -44.95356127 176.16662441 -44.9375 178.25 C-44.92589844 179.41015625 -44.91429687 180.5703125 -44.90234375 181.765625 C-45 185 -45 185 -46 189 C-70.09 189 -94.18 189 -119 189 C-120.76852311 183.69443066 -120.9966289 178.50087382 -120 173 C-118.06805952 170.4736163 -115.88671217 168.65151183 -113.48828125 166.56640625 C-108.29014873 161.20506706 -105.8765334 153.79088944 -103 147 C-102.13259925 144.99041509 -101.26404161 142.98132927 -100.39453125 140.97265625 C-98.37634498 136.29454505 -96.3733055 131.61016427 -94.37890625 126.921875 C-90.7663377 118.43293749 -87.10339536 109.96601462 -83.4375 101.5 C-82.07535852 98.35293482 -80.71345218 95.2057679 -79.3515625 92.05859375 C-79.00287613 91.25290451 -78.65418976 90.44721527 -78.29493713 89.61711121 C-75.18866041 82.4385769 -72.08637616 75.25832059 -68.98857117 68.0761261 C-66.95831216 63.36972118 -64.92377573 58.66527133 -62.87915039 53.96508789 C-59.54890674 46.29964941 -56.22531748 38.63837618 -53.1169281 30.87971497 C-51.98025822 28.04363565 -50.82219247 25.21652455 -49.66293335 22.38961792 C-49.14535723 21.10731452 -48.63958996 19.82016901 -48.1468811 18.52810669 C-44.55807504 9.11751876 -44.55807504 9.11751876 -41.17211914 6.68896484 C-38.77922473 5.81193495 -36.51892701 5.3981832 -34 5 C-31.56615322 4.45425218 -29.13258318 3.90726948 -26.69921875 3.359375 C-24.70909191 2.94835174 -22.71679862 2.55004631 -20.72338867 2.15527344 C-18.67201751 1.74691798 -16.62421558 1.32313015 -14.57617188 0.8984375 C-13.26320823 0.6344828 -11.95006308 0.371429 -10.63671875 0.109375 C-9.45811279 -0.12813477 -8.27950684 -0.36564453 -7.06518555 -0.61035156 C-4.13825439 -0.98242501 -2.69465349 -1.05887566 0 0 Z " fill="#1A335E" transform="translate(894,21)"/>
<path d="M0 0 C0 13.53 0 27.06 0 41 C-5.61 41 -11.22 41 -17 41 C-18.2684375 38.2465625 -18.2684375 38.2465625 -19.5625 35.4375 C-25.13968936 24.46344612 -32.78903512 19.48923918 -44 15 C-55.23851617 11.74371198 -68.78026849 11.10642724 -79.68359375 15.65625 C-84.34119731 18.35813132 -87.30613208 21.91839625 -89 27 C-89.16871733 28.78674413 -89.26580465 30.58091536 -89.3125 32.375 C-89.34988281 33.31085938 -89.38726563 34.24671875 -89.42578125 35.2109375 C-88.72624195 39.7932408 -85.98271971 42.26608384 -82.35009766 44.97900391 C-74.36024967 49.86671599 -66.19228821 53.79378802 -57.572052 57.44284058 C-53.81351633 59.03750217 -50.07237955 60.67181418 -46.33203125 62.30859375 C-45.60292038 62.62754105 -44.87380951 62.94648834 -44.12260437 63.27510071 C-31.3803698 68.88154605 -18.72645026 75.00189804 -8 84 C-7.20335937 84.66128906 -6.40671875 85.32257813 -5.5859375 86.00390625 C1.69476429 92.61497828 8.45504313 103.03169901 9.23828125 113.046875 C9.56455849 129.32639227 5.72903268 143.13772066 -5.6875 155.1875 C-13.67220548 162.81361092 -22.82536065 167.86272195 -33 172 C-33.6909375 172.28617188 -34.381875 172.57234375 -35.09375 172.8671875 C-63.77299111 183.56675053 -103.14237504 180.51916963 -130.93017578 168.14013672 C-134.07005038 166.60197248 -137.03861892 164.8517511 -140 163 C-140.22705288 154.68679341 -139.61592147 146.5181892 -138.77319336 138.25512695 C-138.56111137 136.17387273 -138.3570733 134.0919452 -138.15429688 132.00976562 C-137.5887991 126.29894828 -136.9443867 120.66632023 -136 115 C-129.4 115 -122.8 115 -116 115 C-115.62875 116.93875 -115.2575 118.8775 -114.875 120.875 C-112.33030574 131.72529359 -107.14457717 139.55429333 -98 146 C-84.64135785 153.57568018 -69.29900608 155.18533725 -54.375 151.75 C-48.75275282 150.09957353 -44.03473648 148.29728313 -40.0625 143.8125 C-38.52676678 139.74732382 -38.123522 136.27927492 -39 132 C-44.29207065 121.76866341 -58.03382161 117.47345991 -67.97564697 113.1361084 C-119.1447917 90.73813321 -119.1447917 90.73813321 -129 67.5 C-133.00093832 56.94196833 -134.18803831 43.89900023 -130.4375 33 C-129.67420858 31.31023072 -128.85996144 29.64268084 -128 28 C-127.54882812 27.05382813 -127.09765625 26.10765625 -126.6328125 25.1328125 C-117.15954821 6.98750528 -100.14692858 -3.93266926 -81.421875 -10.96875 C-55.77988914 -18.88113421 -23.82925751 -10.21253893 0 0 Z " fill="#1A335E" transform="translate(1552,35)"/>
<path d="M0 0 C509.52 0 1019.04 0 1544 0 C1544 2.64 1544 5.28 1544 8 C1034.48 8 524.96 8 0 8 C0 5.36 0 2.72 0 0 Z " fill="#B1B1B1" transform="translate(17,257)"/>
<path d="M0 0 C29.37 0 58.74 0 89 0 C89 5.94 89 11.88 89 18 C81.25 20.1875 81.25 20.1875 78.82910156 20.84057617 C77.86955566 21.1263855 77.86955566 21.1263855 76.890625 21.41796875 C76.24125977 21.60125732 75.59189453 21.7845459 74.92285156 21.97338867 C71.8532387 23.61225638 70.80912242 24.94274249 69 28 C68.386004 32.23754887 68.45406937 36.45364708 68.48242188 40.72900391 C68.4754126 42.02214005 68.46840332 43.31527618 68.46118164 44.64759827 C68.44297487 48.18680006 68.45000352 51.72553451 68.46269798 55.26474428 C68.47283525 58.96958951 68.4634307 62.67439512 68.45715332 66.37924194 C68.44988082 72.59827858 68.45945596 78.81712506 68.47851562 85.03613281 C68.50030293 92.22825156 68.49321825 99.41991706 68.47121 106.6120249 C68.45306736 112.78795716 68.45049147 118.96375287 68.46096468 125.13970315 C68.46720348 128.82807053 68.46802446 132.51622469 68.45481873 136.2045784 C68.44113471 140.31325464 68.46009101 144.42114697 68.48242188 148.52978516 C68.47432495 149.75479233 68.46622803 150.9797995 68.45788574 152.2419281 C68.46916504 153.35790878 68.48044434 154.47388947 68.49206543 155.62368774 C68.49432758 157.08098014 68.49432758 157.08098014 68.49663544 158.56771278 C68.78674651 161.1433702 68.78674651 161.1433702 70.90583038 162.79178429 C73.01584844 164.00914364 74.73785994 164.64695408 77.109375 165.16796875 C77.86347656 165.33876953 78.61757813 165.50957031 79.39453125 165.68554688 C80.17183594 165.85119141 80.94914063 166.01683594 81.75 166.1875 C82.54277344 166.36474609 83.33554687 166.54199219 84.15234375 166.72460938 C86.09960076 167.15863654 88.04955604 167.58052679 90 168 C90.02730462 169.87491693 90.04653244 171.74995225 90.0625 173.625 C90.07410156 174.66914063 90.08570313 175.71328125 90.09765625 176.7890625 C90 180 90 180 89 186 C59.63 186 30.26 186 0 186 C-1.50156874 182.99686252 -1.09281204 180.20932478 -1.0625 176.875 C-1.05347656 175.59367188 -1.04445313 174.31234375 -1.03515625 172.9921875 C-1.02355469 172.00476563 -1.01195312 171.01734375 -1 170 C0.28583984 169.67128906 0.28583984 169.67128906 1.59765625 169.3359375 C11.47399799 166.61839738 11.47399799 166.61839738 19 160 C20.66464051 156.44043762 21.25069728 153.64215014 21.25396729 149.72485352 C21.25960693 148.68185089 21.26524658 147.63884827 21.27105713 146.5642395 C21.26700867 145.43057953 21.26296021 144.29691956 21.25878906 143.12890625 C21.2622937 141.92676483 21.26579834 140.72462341 21.26940918 139.48605347 C21.27669514 136.19680792 21.2749988 132.90772376 21.26865101 129.61848068 C21.26357869 126.17216408 21.26828589 122.72585806 21.27142334 119.27954102 C21.2750594 113.49265616 21.27027336 107.7058224 21.26074219 101.91894531 C21.24985831 95.23366864 21.25338414 88.54851396 21.264395 81.86324024 C21.27347816 76.1178753 21.27474812 70.37254704 21.26951766 64.62717724 C21.26640361 61.19813729 21.26597306 57.76915465 21.27259064 54.34011841 C21.27766347 50.517026 21.26993459 46.69416863 21.25878906 42.87109375 C21.26283752 41.73743378 21.26688599 40.6037738 21.27105713 39.4357605 C21.26541748 38.39275787 21.25977783 37.34975525 21.25396729 36.27514648 C21.25321323 35.3718309 21.25245918 34.46851532 21.25168228 33.53782654 C20.96940554 30.69150223 20.25785915 28.56281588 19 26 C17.14556801 24.7394372 17.14556801 24.7394372 15 24 C9.66666667 21.33333333 4.33333333 18.66666667 -1 16 C-1.02692484 13.70839681 -1.04636124 11.41670454 -1.0625 9.125 C-1.07410156 7.84882813 -1.08570313 6.57265625 -1.09765625 5.2578125 C-1 2 -1 2 0 0 Z " fill="#1B345E" transform="translate(465,24)"/>
<path d="M0 0 C32.5862069 0 32.5862069 0 47.8125 9.8125 C54.49571757 16.49571757 57.28170717 24.16791193 57.375 33.5625 C57.35247983 43.26982139 55.70227137 52.61096837 49 60 C33.8654748 70.08968347 18.31332231 68 0 68 C0 45.56 0 23.12 0 0 Z " fill="#FDFDFD" transform="translate(637,47)"/>
<path d="M0 0 C5.11331032 3.78051766 7.29593986 9.05188207 9.24609375 14.90234375 C9.93323369 22.59831104 8.18571902 29.57278697 3.80859375 36.01953125 C-1.4330776 41.89121118 -9.00316438 44.9120391 -16.81640625 45.40234375 C-24.77458453 44.39178143 -30.70607244 41.65955719 -36.28125 35.87890625 C-40.06309183 30.80301244 -41.31323116 26.297245 -41.25390625 20.02734375 C-41.24746094 19.31843994 -41.24101563 18.60953613 -41.234375 17.87915039 C-41.02544492 11.90746138 -39.87916724 8.17707072 -35.75390625 3.90234375 C-34.82964844 2.93361328 -34.82964844 2.93361328 -33.88671875 1.9453125 C-23.77437382 -7.71453451 -11.34403031 -7.09949336 0 0 Z " fill="#B3B3B3" transform="translate(133.75390625,297.09765625)"/>
<path d="M0 0 C28.94736842 0 28.94736842 0 36.4375 5.9296875 C36.953125 6.57164062 37.46875 7.21359375 38 7.875 C38.53625 8.51179688 39.0725 9.14859375 39.625 9.8046875 C43.70427682 16.31762378 43.97929173 23.5503879 43 31 C40.64959003 37.39449772 37.03006412 41.716297 31.125 45.0625 C19.7787582 50.06819491 15.44061476 48 0 48 C0 32.16 0 16.32 0 0 Z " fill="#B2B2B2" transform="translate(245,293)"/>
<path d="M0 0 C6.6825 -0.12375 6.6825 -0.12375 13.5 -0.25 C15.58344727 -0.30462402 15.58344727 -0.30462402 17.70898438 -0.36035156 C24.95654711 -0.42517396 29.92397639 -0.08963128 36 4 C39.29436467 7.87974837 40.74385253 11.7294363 40.44921875 16.94140625 C39.58934355 20.88187781 37.72868357 24.05273971 35 27 C31.6875 28.5 31.6875 28.5 29 29 C31.99859542 34.6223664 35.57976205 39.63785647 39.390625 44.7421875 C41 47 41 47 41 48 C37.3290495 49.0750072 34.65110481 49.22025035 31 48 C26.55503813 43.87922271 22.83554027 38.34409053 20 33 C20 32.34 20 31.68 20 31 C16.37 31 12.74 31 9 31 C9 36.61 9 42.22 9 48 C6.03 48 3.06 48 0 48 C0 32.16 0 16.32 0 0 Z " fill="#B4B4B4" transform="translate(960,293)"/>
<path d="M0 0 C4.455 -0.103125 8.91 -0.20625 13.5 -0.3125 C15.58344727 -0.38078003 15.58344727 -0.38078003 17.70898438 -0.45043945 C25.11302481 -0.53321688 30.37220828 -0.08224048 36 5 C39.47993568 8.80617965 39.45420022 12.67908921 39.28515625 17.6328125 C38.73890083 22.16748075 36.76423775 24.29308008 33.5 27.3125 C31 29 31 29 28 29 C28.35827881 29.50450684 28.71655762 30.00901367 29.08569336 30.52880859 C30.70439405 32.80986028 32.3209706 35.09240912 33.9375 37.375 C34.50146484 38.1690625 35.06542969 38.963125 35.64648438 39.78125 C36.18466797 40.54179687 36.72285156 41.30234375 37.27734375 42.0859375 C37.77484131 42.7876709 38.27233887 43.4894043 38.78491211 44.21240234 C40 46 40 46 41 48 C37.39062038 48.89850514 34.58885834 49.06012347 31 48 C27.01967065 44.06377402 24.03495404 39.68666942 21 35 C19.36221601 31.7882039 19.36221601 31.7882039 16.6171875 31.48828125 C15.25980469 31.40126953 15.25980469 31.40126953 13.875 31.3125 C12.26625 31.209375 10.6575 31.10625 9 31 C9 36.61 9 42.22 9 48 C6.03 48 3.06 48 0 48 C0 32.16 0 16.32 0 0 Z " fill="#B3B3B3" transform="translate(478,293)"/>
<path d="M0 0 C3.3 0 6.6 0 10 0 C10.44653931 1.40076782 10.44653931 1.40076782 10.90209961 2.82983398 C12.00415093 6.2841151 13.11022085 9.73709815 14.2175293 13.18969727 C14.69682321 14.68608896 15.17501675 16.18283355 15.65209961 17.67993164 C16.33680993 19.82791698 17.0254275 21.97461492 17.71484375 24.12109375 C17.92842026 24.79401962 18.14199677 25.4669455 18.36204529 26.16026306 C19.21761381 29.33550532 19.21761381 29.33550532 21 32 C24.63 21.44 28.26 10.88 32 0 C34.64 0 37.28 0 40 0 C43.63 10.56 47.26 21.12 51 32 C54.17876426 24.14903872 54.17876426 24.14903872 56.921875 16.2109375 C57.22480469 15.25058594 57.52773437 14.29023438 57.83984375 13.30078125 C58.14019531 12.33527344 58.44054687 11.36976563 58.75 10.375 C59.22373047 8.86873047 59.22373047 8.86873047 59.70703125 7.33203125 C60.47481527 4.88908208 61.23907632 2.44509287 62 0 C64.97 0 67.94 0 71 0 C70.32340796 5.37587074 68.6802711 10.18970352 66.875 15.265625 C66.56804199 16.14023376 66.26108398 17.01484253 65.94482422 17.91595459 C65.29818469 19.75564732 64.64921354 21.59452198 63.99804688 23.43261719 C62.9989904 26.25285001 62.00668578 29.07538614 61.015625 31.8984375 C60.38580508 33.68763677 59.75560986 35.47670399 59.125 37.265625 C58.82706543 38.11143127 58.52913086 38.95723755 58.22216797 39.82867432 C57.94518066 40.60998718 57.66819336 41.39130005 57.3828125 42.19628906 C57.13934082 42.88434631 56.89586914 43.57240356 56.64501953 44.28131104 C56 46 56 46 55 48 C52.36 48 49.72 48 47 48 C46.70230713 47.10168457 46.40461426 46.20336914 46.09790039 45.27783203 C44.99395976 41.94898 43.88867503 38.62058061 42.7824707 35.29248047 C42.30373933 33.8512539 41.82554632 32.40984838 41.34790039 30.96826172 C40.66173087 28.89764008 39.97363545 26.82766715 39.28515625 24.7578125 C38.87144775 23.5114502 38.45773926 22.26508789 38.03149414 20.98095703 C37.11324599 18.11803731 37.11324599 18.11803731 36 16 C32.77374097 23.61477288 30.07081772 31.40403726 27.37475586 39.21777344 C27.08221924 40.0637207 26.78968262 40.90966797 26.48828125 41.78125 C26.09443237 42.9269043 26.09443237 42.9269043 25.69262695 44.09570312 C25 46 25 46 24 48 C21.69 48 19.38 48 17 48 C13.34333324 39.29931704 10.25884567 30.39691046 7.14404297 21.49243164 C6.24081742 18.91125868 5.33352646 16.33153965 4.42578125 13.75195312 C3.85132431 12.11466689 3.27709692 10.47730008 2.703125 8.83984375 C2.43131409 8.06704575 2.15950317 7.29424774 1.87945557 6.49803162 C0 1.11542911 0 1.11542911 0 0 Z " fill="#B3B3B3" transform="translate(17,293)"/>
<path d="M0 0 C4.455 -0.103125 8.91 -0.20625 13.5 -0.3125 C15.58344727 -0.38078003 15.58344727 -0.38078003 17.70898438 -0.45043945 C25.10290633 -0.53310376 30.38702281 -0.09272675 36 5 C39.24882186 8.65492459 39.46553465 12.06785394 39.28515625 16.7890625 C38.68614493 21.43345167 36.83999773 24.20200216 33.5 27.375 C31 29 31 29 28 29 C28.36351562 29.50450684 28.72703125 30.00901367 29.1015625 30.52880859 C30.73925754 32.80740929 32.3696962 35.09110593 34 37.375 C34.85851562 38.56609375 34.85851562 38.56609375 35.734375 39.78125 C36.27578125 40.54179687 36.8171875 41.30234375 37.375 42.0859375 C37.87773437 42.7876709 38.38046875 43.4894043 38.8984375 44.21240234 C40 46 40 46 40 48 C36.31149511 49.15215771 33.65966242 49.32944841 30 48 C27.84649867 45.56756752 26.22947667 42.84299548 24.5625 40.0625 C21.26698691 34.24760162 21.26698691 34.24760162 15.859375 30.71484375 C12.51444442 30.39067168 12.51444442 30.39067168 8 31 C8 36.61 8 42.22 8 48 C5.36 48 2.72 48 0 48 C0 32.16 0 16.32 0 0 Z " fill="#B2B2B2" transform="translate(153,293)"/>
<path d="M0 0 C4.455 -0.103125 8.91 -0.20625 13.5 -0.3125 C15.58344727 -0.38078003 15.58344727 -0.38078003 17.70898438 -0.45043945 C24.29763886 -0.52410084 29.120919 -0.31748591 34.56445312 3.59375 C38.11635551 7.07316458 39.13515563 11.26163783 39.4375 16.0625 C38.84221404 21.4200736 36.87784981 24.29286381 32.9375 27.875 C31 29 31 29 28 29 C28.32798584 29.46897705 28.65597168 29.9379541 28.99389648 30.42114258 C30.47888279 32.54898237 31.95823842 34.68067692 33.4375 36.8125 C33.95376953 37.55048828 34.47003906 38.28847656 35.00195312 39.04882812 C35.49501953 39.76103516 35.98808594 40.47324219 36.49609375 41.20703125 C37.17949829 42.18893433 37.17949829 42.18893433 37.87670898 43.19067383 C39 45 39 45 40 48 C36.31149511 49.15215771 33.65966242 49.32944841 30 48 C27.84649867 45.56756752 26.22947667 42.84299548 24.5625 40.0625 C21.26698691 34.24760162 21.26698691 34.24760162 15.859375 30.71484375 C12.51444442 30.39067168 12.51444442 30.39067168 8 31 C8 36.61 8 42.22 8 48 C5.36 48 2.72 48 0 48 C0 32.16 0 16.32 0 0 Z " fill="#B2B2B2" transform="translate(1190,293)"/>
<path d="M0 0 C0.99 0.33 1.98 0.66 3 1 C3.96207071 3.75603094 4.72495057 6.42607386 5.4375 9.25 C8.58451329 21.03260578 12.37922744 32.58282908 16.21334839 44.15539551 C17.00752972 46.55303735 17.79683581 48.95224515 18.5859375 51.3515625 C18.82940414 52.07886566 19.07287079 52.80616882 19.32371521 53.55551147 C20.28836923 56.49392165 21 58.88508057 21 62 C6.81 62 -7.38 62 -22 62 C-20.16219953 55.87399842 -18.32876192 49.92134327 -16.07421875 43.96484375 C-15.80414505 43.2424501 -15.53407135 42.52005646 -15.2558136 41.77577209 C-14.40275234 39.49519346 -13.54546125 37.21623924 -12.6875 34.9375 C-11.56430635 31.94739827 -10.44324273 28.95650844 -9.32421875 25.96484375 C-9.0502829 25.23276703 -8.77634705 24.50069031 -8.49411011 23.74642944 C-5.55815413 15.8678682 -2.76953037 7.93831625 0 0 Z " fill="#F9F9FA" transform="translate(862,56)"/>
<path d="M0 0 C9 0 9 0 11.14819336 1.44604492 C11.62393799 2.11740479 12.09968262 2.78876465 12.58984375 3.48046875 C13.1420459 4.22699707 13.69424805 4.97352539 14.26318359 5.74267578 C14.81570801 6.54946777 15.36823242 7.35625977 15.9375 8.1875 C16.52869629 8.99944824 17.11989258 9.81139648 17.72900391 10.64794922 C18.92929615 12.29668804 20.11886947 13.95328594 21.29736328 15.61767578 C23.73268767 19.02517441 26.30140523 22.32170361 28.875 25.625 C30.23625 27.39875 31.5975 29.1725 33 31 C33.33 20.77 33.66 10.54 34 0 C36.64 0 39.28 0 42 0 C42 15.84 42 31.68 42 48 C35 48 35 48 33.26245117 46.8293457 C32.86002197 46.28366943 32.45759277 45.73799316 32.04296875 45.17578125 C31.34095337 44.25986206 31.34095337 44.25986206 30.62475586 43.32543945 C30.15046143 42.66116943 29.67616699 41.99689941 29.1875 41.3125 C28.67904541 40.63856201 28.17059082 39.96462402 27.64672852 39.27026367 C26.59737175 37.87694655 25.55694552 36.47686031 24.52539062 35.0703125 C22.63930483 32.51045214 20.69326178 30.00083067 18.74145508 27.4909668 C15.78850946 23.68989937 12.88794079 19.85058772 10 16 C9.67 26.56 9.34 37.12 9 48 C6.03 48 3.06 48 0 48 C0 32.16 0 16.32 0 0 Z " fill="#B3B3B3" transform="translate(1293,293)"/>
<path d="M0 0 C8 0 8 0 9.9609375 1.29296875 C10.42757812 1.91816406 10.89421875 2.54335938 11.375 3.1875 C12.22384766 4.28191406 12.22384766 4.28191406 13.08984375 5.3984375 C14.03537109 6.68621094 14.03537109 6.68621094 15 8 C16.21998195 9.55853194 17.43999727 11.11703791 18.66064453 12.67504883 C23.59809672 19.00688283 28.27490841 25.50299907 33 32 C33.33 21.44 33.66 10.88 34 0 C36.64 0 39.28 0 42 0 C42 15.84 42 31.68 42 48 C35 48 35 48 32.48046875 45.83203125 C31.72378906 44.83558594 30.96710937 43.83914063 30.1875 42.8125 C29.77153564 42.27729736 29.35557129 41.74209473 28.92700195 41.19067383 C28.04859128 40.05531198 27.17985977 38.91240412 26.3203125 37.76269531 C25.00635371 36.00848258 23.66480239 34.27946272 22.3125 32.5546875 C18.07173969 27.12536458 14.00618891 21.60866448 10 16 C9.67 26.56 9.34 37.12 9 48 C6.03 48 3.06 48 0 48 C0 32.16 0 16.32 0 0 Z " fill="#B3B3B3" transform="translate(787,293)"/>
<path d="M0 0 C8 0 8 0 10.07958984 1.44897461 C10.82523193 2.44682983 10.82523193 2.44682983 11.5859375 3.46484375 C12.1540918 4.19687012 12.72224609 4.92889648 13.30761719 5.68310547 C13.86610352 6.44768066 14.42458984 7.21225586 15 8 C16.11621936 9.41873099 17.23339548 10.83670979 18.3515625 12.25390625 C19.44561244 13.68789314 20.53676114 15.12409816 21.625 16.5625 C22.1715625 17.27857422 22.718125 17.99464844 23.28125 18.73242188 C26.60622252 23.10340848 29.80449027 27.52628638 33 32 C33.33 21.44 33.66 10.88 34 0 C36.64 0 39.28 0 42 0 C42 15.84 42 31.68 42 48 C35 48 35 48 33.20703125 46.8125 C32.74683594 46.214375 32.28664063 45.61625 31.8125 45 C31.24144531 44.27683594 30.67039062 43.55367188 30.08203125 42.80859375 C29.05142578 41.41833984 29.05142578 41.41833984 28 40 C27.04640966 38.74025159 26.09190983 37.48119135 25.13671875 36.22265625 C23.09722978 33.52499027 21.07417092 30.81611233 19.0625 28.09765625 C15.7665569 23.68765074 12.38009796 19.34584023 9 15 C8.67 25.89 8.34 36.78 8 48 C5.36 48 2.72 48 0 48 C0 32.16 0 16.32 0 0 Z " fill="#B2B2B2" transform="translate(1419,293)"/>
<path d="M0 0 C2.64 0 5.28 0 8 0 C11.92003586 7.54990457 15.39531736 15.27188491 18.76660156 23.07739258 C19.62599998 25.06481253 20.49243072 27.04906513 21.359375 29.03320312 C24.21388197 35.60238255 26.88363547 42.14808221 29 49 C26.03 49 23.06 49 20 49 C19.32645501 47.56570999 18.66140299 46.12742943 18 44.6875 C17.62875 43.88699219 17.2575 43.08648437 16.875 42.26171875 C16 40 16 40 16 37 C8.41 37.33 0.82 37.66 -7 38 C-8.65 41.63 -10.3 45.26 -12 49 C-14.97 49 -17.94 49 -21 49 C-15.66376278 35.75957524 -9.94470719 22.69993802 -4.16601562 9.64746094 C-2.75392975 6.44129276 -1.37010062 3.22430347 0 0 Z " fill="#B3B3B3" transform="translate(1256,292)"/>
<path d="M0 0 C2.05078125 0.03255208 4.1015625 0.06510417 6.15234375 0.09765625 C8.82548212 6.10994147 11.49429804 12.12413168 14.16015625 18.13964844 C15.06704538 20.18468343 15.97491319 22.22928471 16.88378906 24.2734375 C18.19204804 27.21630451 19.49674815 30.16072718 20.80078125 33.10546875 C21.4087001 34.46987595 21.4087001 34.46987595 22.02890015 35.86184692 C23.9558676 40.22231444 25.75293909 44.53152366 27.15234375 49.09765625 C24.18234375 49.09765625 21.21234375 49.09765625 18.15234375 49.09765625 C16.50234375 45.46765625 14.85234375 41.83765625 13.15234375 38.09765625 C5.56234375 37.76765625 -2.02765625 37.43765625 -9.84765625 37.09765625 C-10.83765625 40.06765625 -11.82765625 43.03765625 -12.84765625 46.09765625 C-13.17765625 47.08765625 -13.50765625 48.07765625 -13.84765625 49.09765625 C-16.81765625 49.09765625 -19.78765625 49.09765625 -22.84765625 49.09765625 C-20.8353525 42.8040055 -18.52920481 36.76897793 -15.87109375 30.72265625 C-15.31501938 29.44684692 -15.31501938 29.44684692 -14.74771118 28.14526367 C-13.97136079 26.36637546 -13.19313041 24.58830661 -12.41308594 22.81103516 C-11.21457301 20.07923191 -10.02288462 17.34452466 -8.83203125 14.609375 C-8.07461581 12.87612851 -7.31681731 11.14304937 -6.55859375 9.41015625 C-6.20131195 8.59047363 -5.84403015 7.77079102 -5.47592163 6.92626953 C-2.48754195 0.13147685 -2.48754195 0.13147685 0 0 Z " fill="#B3B3B3" transform="translate(442.84765625,291.90234375)"/>
<path d="M0 0 C-1.15173355 2.46800047 -2.04783565 4.04783565 -4 6 C-6.2422673 5.70103103 -7.857435 5.08011665 -9.828125 3.97265625 C-14.75773629 1.76497062 -20.40660411 2.4393607 -25.375 4.1875 C-29.57998637 7.09094297 -32.00552517 9.99044922 -33 15 C-33.80251585 21.09912044 -33.01917851 25.3064332 -29.40234375 30.3359375 C-26.68085303 33.56533874 -24.71058051 34.84020611 -20.44921875 35.23828125 C-15.25549252 35.37181413 -10.83725254 35.09178488 -6 33 C-6 29.7 -6 26.4 -6 23 C-9.96 23 -13.92 23 -18 23 C-18 20.69 -18 18.38 -18 16 C-11.4 16 -4.8 16 2 16 C2 22.93 2 29.86 2 37 C-7.19572879 42.10873822 -14.6420125 45.84526997 -25.10546875 43.53515625 C-31.95151681 41.2972798 -37.08608818 37.24835622 -40.375 30.8125 C-43.85856561 23.13350972 -43.9982004 16.06001789 -41.0390625 8.13671875 C-37.9373961 1.75847994 -33.31416584 -2.0151216 -27 -5 C-17.92076434 -7.79361097 -7.35033027 -6.01850438 0 0 Z " fill="#B2B2B2" transform="translate(1514,298)"/>
<path d="M0 0 C-1.65 2.31 -3.3 4.62 -5 7 C-6.093125 6.34 -7.18625 5.68 -8.3125 5 C-13.47723308 2.43139385 -18.33275883 2.14211487 -24 3 C-28.57818464 5.20733902 -30.75910763 7.49906233 -33 12 C-33.79875126 17.68480627 -34.0428392 23.90094667 -31.375 29.125 C-28.16794042 33.00723002 -25.68160928 34.72921861 -20.6015625 35.2421875 C-15.67873014 35.37523702 -11.5961499 34.93522101 -7 33 C-7 29.7 -7 26.4 -7 23 C-10.96 23 -14.92 23 -19 23 C-19 20.69 -19 18.38 -19 16 C-12.4 16 -5.8 16 1 16 C1.16193177 19.4185595 1.2808571 22.82947459 1.375 26.25 C1.42527344 27.21808594 1.47554687 28.18617188 1.52734375 29.18359375 C1.58369376 31.90717752 1.55426212 34.33158319 1 37 C-4.17474571 41.87734653 -11.93925442 44.02300279 -19 44.4375 C-25.81685701 44.14712678 -33.33112337 40.93566958 -38 36 C-43.23944337 29.69811395 -43.991627 22.82155833 -43.5390625 14.88671875 C-42.59158342 8.05525729 -39.99320372 3.55735125 -34.7734375 -0.90234375 C-23.60139925 -8.84233749 -11.07460886 -7.26771207 0 0 Z " fill="#B3B3B3" transform="translate(569,298)"/>
<path d="M0 0 C11.88 0 23.76 0 36 0 C36 2.31 36 4.62 36 7 C27.09 7 18.18 7 9 7 C9 11.29 9 15.58 9 20 C16.92 20 24.84 20 33 20 C33 22.31 33 24.62 33 27 C25.08 27 17.16 27 9 27 C9 31.29 9 35.58 9 40 C18.24 40 27.48 40 37 40 C37 42.64 37 45.28 37 48 C24.79 48 12.58 48 0 48 C0 32.16 0 16.32 0 0 Z " fill="#B4B4B4" transform="translate(914,293)"/>
<path d="M0 0 C11.88 0 23.76 0 36 0 C36 2.31 36 4.62 36 7 C27.09 7 18.18 7 9 7 C9 11.29 9 15.58 9 20 C16.92 20 24.84 20 33 20 C33 22.31 33 24.62 33 27 C25.08 27 17.16 27 9 27 C9 31.29 9 35.58 9 40 C18.24 40 27.48 40 37 40 C37 42.64 37 45.28 37 48 C24.79 48 12.58 48 0 48 C0 32.16 0 16.32 0 0 Z " fill="#B4B4B4" transform="translate(581,293)"/>
<path d="M0 0 C2.97 0 5.94 0 9 0 C9.01458252 0.97348389 9.02916504 1.94696777 9.04418945 2.94995117 C9.10233296 6.57515476 9.17956377 10.1997476 9.26245117 13.82446289 C9.29562532 15.39076801 9.32368058 16.95719051 9.34643555 18.52368164 C9.38012116 20.78061763 9.43244049 23.03648526 9.48828125 25.29296875 C9.49467117 25.98899704 9.5010611 26.68502533 9.50764465 27.40214539 C9.6379698 31.74962132 10.38194451 34.51398679 13 38 C16.42758212 40.57068659 19.83935914 40.35867594 24 40 C28.41029596 38.43900923 28.41029596 38.43900923 31.14208984 34.85473633 C32.2005219 31.33275397 32.32616294 28.18885016 32.4140625 24.51171875 C32.43342865 23.80852005 32.4527948 23.10532135 32.4727478 22.3808136 C32.53220183 20.14982981 32.57879049 17.91879346 32.625 15.6875 C32.66321137 14.16859814 32.70226492 12.64971722 32.7421875 11.13085938 C32.83787416 7.42076533 32.92203072 3.71051349 33 0 C35.97 0 38.94 0 42 0 C42.09976706 4.39243685 42.17188558 8.78425272 42.21972656 13.17749023 C42.23969458 14.66816718 42.2668792 16.1587673 42.30175781 17.64916992 C42.53155651 27.72989803 42.11851424 35.58709558 35.8125 43.875 C30.65354684 47.77287572 24.53129147 49.65456785 18.04296875 49.34375 C12.40726124 48.39548564 7.5826635 46.28441939 4.0625 41.6875 C0.36339033 36.21175702 -0.24882313 29.98318759 -0.1953125 23.53515625 C-0.1924826 22.85698349 -0.18965271 22.17881073 -0.18673706 21.48008728 C-0.17565416 19.34070234 -0.1505736 17.2017557 -0.125 15.0625 C-0.11495476 13.60091756 -0.10583163 12.13932847 -0.09765625 10.67773438 C-0.07575425 7.11835021 -0.04130866 3.55921797 0 0 Z " fill="#B4B4B4" transform="translate(734,293)"/>
<path d="M0 0 C2.64 0 5.28 0 8 0 C8.33 7.26 8.66 14.52 9 22 C11.35125 19.669375 13.7025 17.33875 16.125 14.9375 C16.85348145 14.21812256 17.58196289 13.49874512 18.33251953 12.75756836 C21.47070852 9.6325722 24.40189924 6.52661965 27.125 3.03125 C29.21714946 0.54094916 29.68592598 0.0717532 32.9921875 -0.68359375 C34.41917969 -0.56177734 34.41917969 -0.56177734 35.875 -0.4375 C37.32519531 -0.34275391 37.32519531 -0.34275391 38.8046875 -0.24609375 C39.89136719 -0.12427734 39.89136719 -0.12427734 41 0 C38.11889983 3.52134466 35.18825928 6.8565276 31.89453125 9.99609375 C31.34764648 10.52170898 30.80076172 11.04732422 30.23730469 11.58886719 C29.12712602 12.64855376 28.00669253 13.69760703 26.87597656 14.73535156 C23.92661038 17.37886925 23.92661038 17.37886925 22.90234375 21.01953125 C24.39318992 23.70942096 26.11602316 26.06652991 28 28.5 C28.81130152 29.55851435 29.62249611 30.61711067 30.43359375 31.67578125 C31.06370361 32.49103271 31.06370361 32.49103271 31.70654297 33.32275391 C33.84518026 36.09595854 35.95477441 38.89077555 38.0625 41.6875 C38.81660156 42.68136719 39.57070312 43.67523438 40.34765625 44.69921875 C42 47 42 47 42 48 C38.45751674 48.73216251 35.52717814 48.8805647 32 48 C28.35674766 44.78536559 25.74861181 40.98417825 23 37 C21.81707178 35.47560796 20.63022261 33.95424093 19.4375 32.4375 C17 29.2601626 17 29.2601626 17 27 C12.51883936 29.44390282 12.51883936 29.44390282 9 33 C8.62355152 35.62939205 8.39866913 38.05072472 8.3125 40.6875 C8.27833984 41.38939453 8.24417969 42.09128906 8.20898438 42.81445312 C8.12670053 44.54241387 8.0616676 46.27118072 8 48 C5.36 48 2.72 48 0 48 C0 32.16 0 16.32 0 0 Z " fill="#B2B2B2" transform="translate(1348,293)"/>
<path d="M0 0 C1.99609375 1.16796875 1.99609375 1.16796875 3.99609375 4.16796875 C2.67609375 5.81796875 1.35609375 7.46796875 -0.00390625 9.16796875 C-0.54917969 8.95140625 -1.09445312 8.73484375 -1.65625 8.51171875 C-7.18819034 6.46915616 -12.10252323 5.51919091 -18.00390625 6.16796875 C-18.99390625 6.66296875 -18.99390625 6.66296875 -20.00390625 7.16796875 C-20.41119853 9.48953472 -20.74829302 11.82484745 -21.00390625 14.16796875 C-17.25046704 15.74762845 -13.48077782 16.92721148 -9.56640625 18.04296875 C-3.25641947 19.96308916 1.23698889 21.52931147 4.99609375 27.16796875 C5.72362774 32.08305303 5.50045306 36.10105482 3.37109375 40.60546875 C-0.12924944 44.38215483 -3.40805905 45.95518912 -8.51953125 46.63671875 C-16.40914387 46.70274061 -23.71137882 46.48165858 -30.00390625 41.16796875 C-30.76171875 38.99609375 -30.76171875 38.99609375 -31.00390625 37.16796875 C-29.35390625 35.84796875 -27.70390625 34.52796875 -26.00390625 33.16796875 C-24.33328125 34.12703125 -24.33328125 34.12703125 -22.62890625 35.10546875 C-18.81965056 37.29226369 -16.52696304 38.30606877 -12.06640625 38.29296875 C-11.19113281 38.29554688 -10.31585937 38.298125 -9.4140625 38.30078125 C-6.85931569 38.26618878 -6.85931569 38.26618878 -4.00390625 37.16796875 C-4.00390625 34.52796875 -4.00390625 31.88796875 -4.00390625 29.16796875 C-4.68195312 28.9978125 -5.36 28.82765625 -6.05859375 28.65234375 C-23.60122876 24.08445541 -23.60122876 24.08445541 -28.12890625 19.48046875 C-30.56344378 15.17945245 -30.92319299 11.99856038 -30.00390625 7.16796875 C-27.96759968 2.85099882 -25.41989128 0.0533949 -21.11328125 -2.13671875 C-13.79684138 -4.54843411 -6.89220863 -2.87818632 0 0 Z " fill="#B3B3B3" transform="translate(656.00390625,294.83203125)"/>
<path d="M0 0 C5.46788043 2.43016908 8.68152775 6.57041542 11 12 C12.1433041 17.56551807 10.7379028 23.09140933 8 28 C3.78597597 32.21402403 -0.05264266 33.8145374 -5.9375 34.375 C-10.24314875 34.2533715 -12.68393964 32.78850531 -16 30 C-19.84443538 25.83519501 -21.73669392 22.32587039 -22.375 16.6875 C-21.76378397 10.67720899 -19.59020901 5.95927642 -14.9375 2 C-10.27911896 -0.96168622 -5.31810349 -0.84478195 0 0 Z " fill="#FDFDFD" transform="translate(123,300)"/>
<path d="M0 0 C1.32283509 0.66739781 2.63774216 1.35120395 3.9375 2.0625 C4.5975 2.3925 5.2575 2.7225 5.9375 3.0625 C5.32472388 6.02425123 4.68377478 7.44308783 2.9375 10.0625 C0.71855868 9.56940193 -1.14539367 9.02105317 -3.1875 8 C-7.39229068 6.6288726 -11.6746338 6.53440283 -16.0625 7.0625 C-18.34978734 8.90133881 -18.34978734 8.90133881 -18.1875 11.6875 C-18.14625 12.47125 -18.105 13.255 -18.0625 14.0625 C-13.39317001 16.57675461 -8.95634699 18.46114955 -3.875 20 C1.05598863 21.57517692 3.80164953 22.95345456 6.9375 27.0625 C8.69919599 30.58589198 8.60190495 34.22650159 7.9375 38.0625 C5.30299015 42.76571893 2.10425979 45.4992616 -3.0625 47.0625 C-11.48918307 47.87402827 -18.92295967 48.00525869 -26.0625 43.0625 C-28.0625 40.8125 -28.0625 40.8125 -29.0625 39.0625 C-27.0825 36.5875 -27.0825 36.5875 -25.0625 34.0625 C-24.5675 34.330625 -24.0725 34.59875 -23.5625 34.875 C-17.66873264 37.6745395 -12.74144701 39.70470644 -6.0625 39.0625 C-3.70880193 38.18185073 -3.70880193 38.18185073 -2.0625 37.0625 C-2.0625 35.0825 -2.0625 33.1025 -2.0625 31.0625 C-5.65841096 29.07528605 -9.12036292 27.70878995 -13.0625 26.625 C-19.04166136 24.89868574 -23.67891994 22.43188488 -27.0625 17.0625 C-27.85597871 13.05543252 -27.9624884 8.91247616 -26.1484375 5.18359375 C-19.59718464 -3.24850267 -9.31583844 -4.11699957 0 0 Z " fill="#B3B3B3" transform="translate(1036.0625,293.9375)"/>
<path d="M0 0 C1.32283509 0.66739781 2.63774216 1.35120395 3.9375 2.0625 C4.5975 2.3925 5.2575 2.7225 5.9375 3.0625 C5.32472388 6.02425123 4.68377478 7.44308783 2.9375 10.0625 C2.40382813 9.8459375 1.87015625 9.629375 1.3203125 9.40625 C-4.43913026 7.25393229 -9.90669524 6.16647549 -16.0625 7.0625 C-18.34978734 8.90133881 -18.34978734 8.90133881 -18.1875 11.6875 C-18.14625 12.47125 -18.105 13.255 -18.0625 14.0625 C-13.39317001 16.57675461 -8.95634699 18.46114955 -3.875 20 C1.05598863 21.57517692 3.80164953 22.95345456 6.9375 27.0625 C9.01531161 31.21812322 8.11175581 35.4199317 6.9375 39.75 C4.24564013 44.20839291 1.96846992 45.79544091 -3.0625 47.0625 C-11.29350961 48.0244482 -18.30773851 47.96409158 -25.42578125 43.44921875 C-27.0625 42.0625 -27.0625 42.0625 -29.0625 39.0625 C-27.0825 36.5875 -27.0825 36.5875 -25.0625 34.0625 C-24.5675 34.330625 -24.0725 34.59875 -23.5625 34.875 C-17.66873264 37.6745395 -12.74144701 39.70470644 -6.0625 39.0625 C-3.70880193 38.18185073 -3.70880193 38.18185073 -2.0625 37.0625 C-2.0625 35.0825 -2.0625 33.1025 -2.0625 31.0625 C-5.65841096 29.07528605 -9.12036292 27.70878995 -13.0625 26.625 C-19.04166136 24.89868574 -23.67891994 22.43188488 -27.0625 17.0625 C-27.85597871 13.05543252 -27.9624884 8.91247616 -26.1484375 5.18359375 C-19.59718464 -3.24850267 -9.31583844 -4.11699957 0 0 Z " fill="#B3B3B3" transform="translate(343.0625,293.9375)"/>
<path d="M0 0 C1.32283509 0.66739781 2.63774216 1.35120395 3.9375 2.0625 C4.5975 2.3925 5.2575 2.7225 5.9375 3.0625 C5.32472388 6.02425123 4.68377478 7.44308783 2.9375 10.0625 C2.40382813 9.8459375 1.87015625 9.629375 1.3203125 9.40625 C-4.43913026 7.25393229 -9.90669524 6.16647549 -16.0625 7.0625 C-18.34978734 8.90133881 -18.34978734 8.90133881 -18.1875 11.6875 C-18.14625 12.47125 -18.105 13.255 -18.0625 14.0625 C-13.39317001 16.57675461 -8.95634699 18.46114955 -3.875 20 C1.05598863 21.57517692 3.80164953 22.95345456 6.9375 27.0625 C8.47347454 30.13444908 8.1640038 32.66494293 7.9375 36.0625 C6.19333626 40.74420268 4.06714161 43.27499191 -0.0625 46.0625 C-6.3829634 48.16932113 -14.66091583 48.24189799 -20.98046875 46.05078125 C-24.66689377 44.04820452 -26.70761418 42.59482872 -29.0625 39.0625 C-27.0825 36.5875 -27.0825 36.5875 -25.0625 34.0625 C-24.5675 34.330625 -24.0725 34.59875 -23.5625 34.875 C-17.66873264 37.6745395 -12.74144701 39.70470644 -6.0625 39.0625 C-3.70880193 38.18185073 -3.70880193 38.18185073 -2.0625 37.0625 C-2.0625 35.0825 -2.0625 33.1025 -2.0625 31.0625 C-5.65841096 29.07528605 -9.12036292 27.70878995 -13.0625 26.625 C-19.04166136 24.89868574 -23.67891994 22.43188488 -27.0625 17.0625 C-27.85597871 13.05543252 -27.9624884 8.91247616 -26.1484375 5.18359375 C-19.59718464 -3.24850267 -9.31583844 -4.11699957 0 0 Z " fill="#B3B3B3" transform="translate(1553.0625,293.9375)"/>
<path d="M0 0 C3.3 0 6.6 0 10 0 C10.38857178 0.98919434 10.77714355 1.97838867 11.17749023 2.99755859 C12.61715395 6.66182384 14.05802636 10.32561278 15.49926758 13.98925781 C16.1232965 15.57604174 16.746996 17.16295526 17.37036133 18.75 C18.26557564 21.02898632 19.16196725 23.30750647 20.05859375 25.5859375 C20.3377916 26.29744965 20.61698944 27.00896179 20.90464783 27.74203491 C22.34538911 31.41782016 22.34538911 31.41782016 24 35 C24.58285767 33.46291382 24.58285767 33.46291382 25.17749023 31.89477539 C26.61536867 28.10500364 28.05677418 24.31658176 29.49926758 20.52856445 C30.12393456 18.88668021 30.74763524 17.244428 31.37036133 15.60180664 C32.26391864 13.24528916 33.16090534 10.89010261 34.05859375 8.53515625 C34.3377916 7.79660904 34.61698944 7.05806183 34.90464783 6.2971344 C36.88612829 1.11387171 36.88612829 1.11387171 38 0 C41.00003445 -0.14177857 43.99757235 -0.04228771 47 0 C45.08097652 6.0068177 42.91723434 11.84199827 40.4609375 17.6484375 C39.97145126 18.8172496 39.97145126 18.8172496 39.47207642 20.00967407 C38.44278472 22.46608338 37.40913301 24.92062544 36.375 27.375 C35.33450229 29.85111503 34.29493979 32.32761706 33.25650024 34.80459595 C32.61347917 36.33770207 31.96914338 37.87025761 31.32333374 39.40219116 C30.12727263 42.24863502 28.97679405 45.06961785 28 48 C25.36 48 22.72 48 20 48 C17.08993845 42.33476206 14.510956 36.6194989 12.109375 30.72265625 C11.75989807 29.87070175 11.41042114 29.01874725 11.050354 28.14097595 C10.31953522 26.35752468 9.59020311 24.57346354 8.86230469 22.78881836 C7.74266373 20.0445184 6.61778152 17.3024098 5.4921875 14.56054688 C4.78094335 12.82304216 4.06999499 11.08541633 3.359375 9.34765625 C2.85322662 8.11342674 2.85322662 8.11342674 2.33685303 6.85426331 C0 1.1158216 0 1.1158216 0 0 Z " fill="#B3B3B3" transform="translate(859,293)"/>
<path d="M0 0 C15.77813505 0 15.77813505 0 21 4 C25.94035137 9.3203784 26.3538574 12.90835739 26.27734375 20.015625 C25.90333603 24.04015882 24.77391295 26.08009163 22 29 C16 33 16 33 0 33 C0 22.11 0 11.22 0 0 Z " fill="#FCFCFC" transform="translate(253,300)"/>
<path d="M0 0 C3.18558567 -0.65011952 5.83225775 -0.80964658 9 0 C12.02330738 2.91403121 13.93796872 6.36689728 16 10 C17.14542329 11.87525052 18.29123337 13.75026486 19.4375 15.625 C20.29547618 17.08109535 21.15113077 18.53857678 22 20 C25.24890283 16.10429043 27.99131732 12.03191121 30.6875 7.75 C34.88429752 1.11570248 34.88429752 1.11570248 36 0 C37.51928038 -0.07179964 39.04167482 -0.08392007 40.5625 -0.0625 C41.38878906 -0.05347656 42.21507812 -0.04445313 43.06640625 -0.03515625 C43.70449219 -0.02355469 44.34257813 -0.01195312 45 0 C43.67436648 3.74063681 42.03726699 6.47485223 39.55859375 9.5625 C29.68294674 22.45540731 25.68388497 31.70682918 27 48 C24.03 48 21.06 48 18 48 C18.10183594 46.82308594 18.20367188 45.64617187 18.30859375 44.43359375 C18.94556345 28.95729514 12.72078161 19.45862984 3.58813477 7.36157227 C1.98467863 4.97721696 0.9633889 2.6989872 0 0 Z " fill="#B3B3B3" transform="translate(1116,293)"/>
<path d="M0 0 C12.87 0 25.74 0 39 0 C39 2.64 39 5.28 39 8 C34.05 8 29.1 8 24 8 C24 21.2 24 34.4 24 48 C21.03 48 18.06 48 15 48 C15 34.8 15 21.6 15 8 C10.05 8 5.1 8 0 8 C0 5.36 0 2.72 0 0 Z " fill="#B4B4B4" transform="translate(1072,293)"/>
<path d="M0 0 C12.87 0 25.74 0 39 0 C39 2.64 39 5.28 39 8 C34.05 8 29.1 8 24 8 C24 21.2 24 34.4 24 48 C21.03 48 18.06 48 15 48 C15 34.8 15 21.6 15 8 C10.05 8 5.1 8 0 8 C0 5.36 0 2.72 0 0 Z " fill="#B4B4B4" transform="translate(667,293)"/>
<path d="M0 0 C2.97 0 5.94 0 9 0 C9 13.2 9 26.4 9 40 C17.25 40 25.5 40 34 40 C34 42.64 34 45.28 34 48 C22.78 48 11.56 48 0 48 C0 32.16 0 16.32 0 0 Z " fill="#B5B5B5" transform="translate(381,293)"/>
<path d="M0 0 C2.64 0 5.28 0 8 0 C8 13.2 8 26.4 8 40 C16.25 40 24.5 40 33 40 C33 42.64 33 45.28 33 48 C22.11 48 11.22 48 0 48 C0 32.16 0 16.32 0 0 Z " fill="#B2B2B2" transform="translate(203,293)"/>
<path d="M0 0 C2.97 0 5.94 0 9 0 C9 16.17 9 32.34 9 49 C6.03 49 3.06 49 0 49 C0 32.83 0 16.66 0 0 Z " fill="#B1B1B1" transform="translate(1398,292)"/>
<path d="M0 0 C2.97 0 5.94 0 9 0 C9 16.17 9 32.34 9 49 C6.03 49 3.06 49 0 49 C0 32.83 0 16.66 0 0 Z " fill="#B1B1B1" transform="translate(1054,292)"/>
<path d="M0 0 C2.97 0 5.94 0 9 0 C9 16.17 9 32.34 9 49 C6.03 49 3.06 49 0 49 C0 32.83 0 16.66 0 0 Z " fill="#B1B1B1" transform="translate(842,292)"/>
<path d="M0 0 C2.35125 -0.061875 4.7025 -0.12375 7.125 -0.1875 C7.85348145 -0.21481201 8.58196289 -0.24212402 9.33251953 -0.27026367 C13.99444272 -0.32905929 17.03171198 0.60575936 21 3 C22 4 22 4 22.3125 7.8125 C22.28363496 11.03383889 22.17080745 11.77795032 20.125 14.4375 C16.09688693 17.39934785 12.70504166 17.11631529 7.875 17.0625 C5.27625 17.041875 2.6775 17.02125 0 17 C0 11.39 0 5.78 0 0 Z " fill="#F9F9F9" transform="translate(161,300)"/>
<path d="M0 0 C2.35125 -0.061875 4.7025 -0.12375 7.125 -0.1875 C7.85348145 -0.21481201 8.58196289 -0.24212402 9.33251953 -0.27026367 C13.98540198 -0.32894527 17.07173542 0.53438712 21 3 C22.54586876 6.09173752 22.29359521 8.59429552 22 12 C19.78136971 14.90717073 18.48055071 15.83981643 15 17 C12.42502932 17.07035439 9.88550071 17.0934934 7.3125 17.0625 C3.6928125 17.0315625 3.6928125 17.0315625 0 17 C0 11.39 0 5.78 0 0 Z " fill="#FAFAFA" transform="translate(1198,300)"/>
<path d="M0 0 C2.89740622 -0.13539281 5.78845621 -0.23426829 8.6875 -0.3125 C9.50412109 -0.35439453 10.32074219 -0.39628906 11.16210938 -0.43945312 C15.57755274 -0.52883457 17.42355986 -0.43123003 21.0703125 2.296875 C23 5 23 5 23.1875 8.5625 C21.64888131 13.01639621 20.14074652 13.8381833 16 16 C13.17677716 16.44912548 10.47385127 16.38288759 7.625 16.25 C3.850625 16.12625 3.850625 16.12625 0 16 C0 10.72 0 5.44 0 0 Z " fill="#FAFAFA" transform="translate(486,301)"/>
<path d="M0 0 C2.7302389 -0.1083667 5.45614543 -0.18746694 8.1875 -0.25 C8.95642578 -0.28351563 9.72535156 -0.31703125 10.51757812 -0.3515625 C14.5111036 -0.42012088 16.51904326 -0.29218745 20.015625 1.83203125 C22 4 22 4 22.5625 6.9375 C21.8781953 10.66315895 20.66053901 12.33946099 18 15 C14.37918537 16.20693821 11.0749281 16.10782079 7.3125 16.0625 C3.6928125 16.0315625 3.6928125 16.0315625 0 16 C0 10.72 0 5.44 0 0 Z " fill="#FDFDFD" transform="translate(969,301)"/>
<path d="M0 0 C0.66 0 1.32 0 2 0 C3.17112946 2.62309099 4.33705964 5.24828142 5.5 7.875 C5.83386719 8.62136719 6.16773438 9.36773437 6.51171875 10.13671875 C6.98544922 11.20986328 6.98544922 11.20986328 7.46875 12.3046875 C7.76201172 12.96452637 8.05527344 13.62436523 8.35742188 14.30419922 C9 16 9 16 9 18 C3.72 18 -1.56 18 -7 18 C-5.02989474 11.79416842 -2.74844552 5.90148454 0 0 Z " fill="#FAFAFA" transform="translate(1259,304)"/>
<path d="M0 0 C3.39785555 1.69892777 4.19635324 5.57785712 5.625 8.9375 C5.94984375 9.67935547 6.2746875 10.42121094 6.609375 11.18554688 C9 16.72516741 9 16.72516741 9 19 C3.72 19 -1.56 19 -7 19 C-6.10656817 14.53284086 -4.76463639 10.80385599 -2.9375 6.6875 C-2.65583984 6.04232422 -2.37417969 5.39714844 -2.08398438 4.73242188 C-1.3937257 3.15301642 -0.69746802 1.57623507 0 0 Z " fill="#FAFAFA" transform="translate(444,303)"/>
<path d="M0 0 C3.3 0 6.6 0 10 0 C10.26891095 6.54349974 10.42967237 11.32330091 7 17 C4.24698308 18.69416426 2.87338978 19.14163077 -0.3125 18.625 C-1.1478125 18.315625 -1.1478125 18.315625 -2 18 C-2 17.01 -2 16.02 -2 15 C-0.35 14.67 1.3 14.34 3 14 C3.33 12.35 3.66 10.7 4 9 C2.68 9 1.36 9 0 9 C0 6.03 0 3.06 0 0 Z " fill="#B7B7B7" transform="translate(297,293)"/>
</svg>
